# xmcd
#
# Track frame offsets:
#	150
#	19172
#	40211
#	64139
#	97347
#	122927
#	147756
#	168273
#
# Disc length: 2622 seconds
#
# Revision: 0
# Processed by: cddbd v1.5.2PL0 Copyright (c) Steve Scherf et al.
# Submitted via: audiograbber 1.83.01
#
DISCID=700a3c08
DTITLE=Kitaro - Tenku [remastered 2016]
DYEAR=1986
DGENRE=Electronic
TTITLE0=Tenku
TTITLE1=Romance
TTITLE2=Wings
TTITLE3=Aura
TTITLE4=Message From The Cosmos
TTITLE5=Time Traveller
TTITLE6=Legend Of The Road
TTITLE7=Milky Way
EXTD=
EXTT0=
EXTT1=
EXTT2=
EXTT3=
EXTT4=
EXTT5=
EXTT6=
EXTT7=
PLAYORDER=
